<svg width="19" height="19" viewBox="0 0 19 19" fill="none" xmlns="http://www.w3.org/2000/svg">
<path d="M9.23474 3.05176e-05C4.19974 3.05176e-05 0.0801888 4.06126 0.0801888 9.06317C0.0801888 13.5857 3.43075 17.3394 7.80663 18.0178V11.6862H5.48137V9.06317H7.80663V7.06421C7.80663 4.79391 9.17066 3.54569 11.267 3.54569C12.2649 3.54569 13.3085 3.71755 13.3085 3.71755V5.95167H12.155C11.0199 5.95167 10.6628 6.64814 10.6628 7.3627V9.06317H13.2078L12.7959 11.6862H10.6628V18.0178C12.8201 17.6811 14.7844 16.5936 16.2013 14.9515C17.6182 13.3095 18.3942 11.221 18.3893 9.06317C18.3893 4.06126 14.2697 3.05176e-05 9.23474 3.05176e-05Z" fill="#A6A6A6"/>
</svg>
