<svg width="19" height="19" viewBox="0 0 19 19" fill="none" xmlns="http://www.w3.org/2000/svg">
<path d="M5.30965 0H12.9995C15.9289 0 18.3091 2.34231 18.3091 5.22514V12.7926C18.3091 14.1784 17.7497 15.5074 16.754 16.4873C15.7582 17.4672 14.4077 18.0177 12.9995 18.0177H5.30965C2.38019 18.0177 0 15.6754 0 12.7926V5.22514C0 3.83935 0.559408 2.51031 1.55516 1.53041C2.55091 0.550505 3.90144 0 5.30965 0ZM5.12655 1.80177C4.2525 1.80177 3.41424 2.14347 2.79618 2.75168C2.17813 3.3599 1.83091 4.18482 1.83091 5.04497V12.9728C1.83091 14.7655 3.3048 16.216 5.12655 16.216H13.1826C14.0566 16.216 14.8949 15.8743 15.5129 15.2661C16.131 14.6578 16.4782 13.8329 16.4782 12.9728V5.04497C16.4782 3.2522 15.0043 1.80177 13.1826 1.80177H5.12655ZM13.9607 3.1531C14.2642 3.1531 14.5553 3.27175 14.7699 3.48293C14.9845 3.69412 15.105 3.98055 15.105 4.27921C15.105 4.57787 14.9845 4.8643 14.7699 5.07549C14.5553 5.28668 14.2642 5.40532 13.9607 5.40532C13.6572 5.40532 13.3662 5.28668 13.1515 5.07549C12.9369 4.8643 12.8164 4.57787 12.8164 4.27921C12.8164 3.98055 12.9369 3.69412 13.1515 3.48293C13.3662 3.27175 13.6572 3.1531 13.9607 3.1531ZM9.15456 4.50443C10.3685 4.50443 11.5328 4.97901 12.3912 5.82375C13.2496 6.6685 13.7318 7.81422 13.7318 9.00887C13.7318 10.2035 13.2496 11.3492 12.3912 12.194C11.5328 13.0387 10.3685 13.5133 9.15456 13.5133C7.94059 13.5133 6.77634 13.0387 5.91794 12.194C5.05953 11.3492 4.57728 10.2035 4.57728 9.00887C4.57728 7.81422 5.05953 6.6685 5.91794 5.82375C6.77634 4.97901 7.94059 4.50443 9.15456 4.50443ZM9.15456 6.30621C8.42618 6.30621 7.72763 6.59095 7.21259 7.0978C6.69754 7.60464 6.40819 8.29208 6.40819 9.00887C6.40819 9.72566 6.69754 10.4131 7.21259 10.9199C7.72763 11.4268 8.42618 11.7115 9.15456 11.7115C9.88294 11.7115 10.5815 11.4268 11.0965 10.9199C11.6116 10.4131 11.9009 9.72566 11.9009 9.00887C11.9009 8.29208 11.6116 7.60464 11.0965 7.0978C10.5815 6.59095 9.88294 6.30621 9.15456 6.30621Z" fill="#A6A6A6"/>
</svg>
