<svg width="17" height="17" viewBox="0 0 17 17" fill="none" xmlns="http://www.w3.org/2000/svg">
<path d="M14.678 0.119751C15.154 0.119751 15.6106 0.305858 15.9472 0.637131C16.2839 0.968403 16.473 1.41771 16.473 1.8862V14.2513C16.473 14.7198 16.2839 15.1691 15.9472 15.5004C15.6106 15.8316 15.154 16.0178 14.678 16.0178H2.11288C1.63682 16.0178 1.18025 15.8316 0.843618 15.5004C0.506988 15.1691 0.317871 14.7198 0.317871 14.2513V1.8862C0.317871 1.41771 0.506988 0.968403 0.843618 0.637131C1.18025 0.305858 1.63682 0.119751 2.11288 0.119751H14.678ZM14.2292 13.8097V9.12862C14.2292 8.36498 13.921 7.63262 13.3722 7.09264C12.8235 6.55267 12.0793 6.24931 11.3033 6.24931C10.5405 6.24931 9.65193 6.70859 9.22113 7.3975V6.41713H6.71709V13.8097H9.22113V9.45541C9.22113 8.77533 9.77758 8.2189 10.4687 8.2189C10.8019 8.2189 11.1215 8.34917 11.3571 8.58107C11.5928 8.81296 11.7252 9.12747 11.7252 9.45541V13.8097H14.2292ZM3.80019 5.03047C4.20009 5.03047 4.58361 4.87414 4.86638 4.59587C5.14915 4.3176 5.308 3.94019 5.308 3.54665C5.308 2.72526 4.63488 2.05401 3.80019 2.05401C3.39792 2.05401 3.01212 2.21127 2.72767 2.49119C2.44321 2.77112 2.28341 3.15078 2.28341 3.54665C2.28341 4.36805 2.96551 5.03047 3.80019 5.03047ZM5.04773 13.8097V6.41713H2.56164V13.8097H5.04773Z" fill="#A6A6A6"/>
</svg>
