<svg width="20" height="17" viewBox="0 0 20 17" fill="none" xmlns="http://www.w3.org/2000/svg">
<path d="M19.5468 1.9901C18.8332 2.31742 18.0641 2.53251 17.2671 2.63538C18.0826 2.13973 18.7128 1.35418 19.0093 0.409656C18.2402 0.877244 17.3876 1.20456 16.4887 1.39159C15.7567 0.587339 14.728 0.119751 13.5604 0.119751C11.3827 0.119751 9.60351 1.91529 9.60351 4.13166C9.60351 4.44962 9.64057 4.75823 9.70544 5.04813C6.40646 4.8798 3.46889 3.28065 1.5136 0.85854C1.17073 1.4477 0.976122 2.13973 0.976122 2.86917C0.976122 4.26258 1.67113 5.49702 2.74608 6.1984C2.08814 6.1984 1.47653 6.01136 0.939055 5.73081C0.939055 5.73081 0.939055 5.73081 0.939055 5.75886C0.939055 7.70403 2.31054 9.33124 4.12683 9.69596C3.79323 9.78948 3.44109 9.83624 3.07968 9.83624C2.82948 9.83624 2.57928 9.80818 2.33834 9.76142C2.83875 11.3419 4.29363 12.5202 6.04506 12.5482C4.69211 13.6331 2.97775 14.269 1.10586 14.269C0.790786 14.269 0.475716 14.2503 0.160645 14.2129C1.92134 15.3538 4.01563 16.0178 6.25819 16.0178C13.5604 16.0178 17.5729 9.9017 17.5729 4.59925C17.5729 4.42156 17.5729 4.25323 17.5637 4.07555C18.3421 3.51444 19.0093 2.80371 19.5468 1.9901Z" fill="#A6A6A6"/>
</svg>
